<?xml version="1.0" encoding="UTF-8" standalone="no"?>
<!DOCTYPE svg PUBLIC "-//W3C//DTD SVG 1.1//EN" "http://www.w3.org/Graphics/SVG/1.1/DTD/svg11.dtd">
<svg width="100%" height="100%" viewBox="0 0 32 32" version="1.1" xmlns="http://www.w3.org/2000/svg" xmlns:xlink="http://www.w3.org/1999/xlink" xml:space="preserve" xmlns:serif="http://www.serif.com/" style="fill-rule:evenodd;clip-rule:evenodd;stroke-linejoin:round;stroke-miterlimit:2;">
<metadata>
<rdf:RDF xmlns:cc="http://web.resource.org/cc/"
         xmlns:rdf="http://www.w3.org/1999/02/22-rdf-syntax-ns#"
         xmlns:dc = "http://purl.org/dc/elements/1.1/"
         >

     <rdf:Description rdf:about="">
       <dc:title>Mutant Standard emoji v0.3.1</dc:title>
     </rdf:Description>

    <cc:work rdf:about="">
        <cc:license rdf:resource="http://creativecommons.org/licenses/by-nc-sa/4.0/"/>
        <cc:attributionName>Dzuk</cc:attributionName>
        <cc:attributionURL>http://mutant.tech/</cc:attributionURL>
    </cc:work>

</rdf:RDF>
</metadata>

    <rect id="two_male_symbols" x="0" y="0" width="32" height="32" style="fill:none;"/>
    <clipPath id="_clip1">
        <rect x="0" y="0" width="32" height="32"/>
    </clipPath>
    <g clip-path="url(#_clip1)">
        <g id="outline">
            <path d="M24.099,0.001c0.264,0.005 0.527,0.019 0.79,0.048c0.648,0.073 1.288,0.225 1.9,0.453c1.167,0.434 2.227,1.143 3.074,2.055c0.757,0.815 1.339,1.787 1.701,2.838c0.278,0.807 0.419,1.652 0.435,2.506c0.034,5.399 0.034,10.799 0,16.199c-0.005,0.263 -0.019,0.527 -0.048,0.789c-0.073,0.649 -0.225,1.288 -0.453,1.9c-0.434,1.167 -1.143,2.227 -2.056,3.075c-0.814,0.756 -1.786,1.338 -2.837,1.7c-0.807,0.278 -1.652,0.42 -2.506,0.435c-5.399,0.035 -10.799,0.035 -16.198,0c-0.854,-0.015 -1.699,-0.157 -2.506,-0.435c-0.989,-0.34 -1.907,-0.876 -2.691,-1.568c-1.007,-0.89 -1.782,-2.033 -2.236,-3.299c-0.299,-0.835 -0.451,-1.712 -0.467,-2.598c-0.034,-5.399 -0.034,-10.799 0,-16.198c0.015,-0.854 0.157,-1.699 0.435,-2.506c0.384,-1.114 1.015,-2.138 1.837,-2.981c0.823,-0.844 1.833,-1.501 2.938,-1.912c0.581,-0.216 1.187,-0.365 1.803,-0.441c0.294,-0.037 0.59,-0.055 0.887,-0.06c5.399,-0.032 10.799,-0.032 16.198,0Z" style="fill-rule:nonzero;"/>
        </g>
        <g id="emoji">
            <path d="M30,8c0,-1.591 -0.632,-3.117 -1.757,-4.243c-1.126,-1.125 -2.652,-1.757 -4.243,-1.757l-16,0c-1.591,0 -3.117,0.632 -4.243,1.757c-1.125,1.126 -1.757,2.652 -1.757,4.243l0,16c0,1.591 0.632,3.117 1.757,4.243c1.126,1.125 2.652,1.757 4.243,1.757l16,0c1.591,0 3.117,-0.632 4.243,-1.757c1.125,-1.126 1.757,-2.652 1.757,-4.243l0,-16Z" style="fill:#ff4586;"/>
            <path d="M21,10l6,0l0,6l-2,0l0,-2.586l-3.116,3.116c0.311,0.373 0.583,0.778 0.81,1.208c0.321,0.608 0.551,1.263 0.681,1.938c0.139,0.728 0.162,1.479 0.069,2.214c-0.091,0.715 -0.294,1.415 -0.599,2.068c-0.357,0.764 -0.853,1.461 -1.456,2.05c-0.624,0.609 -1.361,1.101 -2.165,1.441c-0.832,0.352 -1.731,0.539 -2.634,0.55c-0.906,0.012 -1.813,-0.152 -2.656,-0.485c-0.813,-0.321 -1.563,-0.795 -2.202,-1.39c-0.616,-0.574 -1.128,-1.259 -1.503,-2.013c-0.32,-0.644 -0.54,-1.336 -0.648,-2.047c-0.007,-0.042 -0.013,-0.084 -0.019,-0.127c-0.557,-0.075 -1.105,-0.217 -1.628,-0.423c-0.813,-0.321 -1.563,-0.795 -2.202,-1.39c-0.616,-0.574 -1.128,-1.259 -1.503,-2.013c-0.32,-0.644 -0.54,-1.336 -0.648,-2.047c-0.112,-0.733 -0.108,-1.484 0.013,-2.215c0.118,-0.708 0.346,-1.397 0.673,-2.036c0.68,-1.327 1.786,-2.42 3.122,-3.084c0.591,-0.294 1.224,-0.503 1.874,-0.62c0.32,-0.057 0.642,-0.089 0.967,-0.104c0.12,-0.004 0.24,-0.005 0.36,-0.004c0.327,0.006 0.652,0.03 0.974,0.08c0.655,0.1 1.294,0.294 1.894,0.574c0.327,0.153 0.642,0.331 0.94,0.532l3.188,-3.187l-2.586,0l0,-2l6,0l0,6Zm-3.584,6.086c-0.101,0.647 -0.294,1.279 -0.571,1.872c-0.357,0.764 -0.853,1.461 -1.456,2.05c-0.624,0.609 -1.361,1.101 -2.165,1.441c-0.525,0.222 -1.077,0.379 -1.64,0.467c0.08,0.432 0.218,0.854 0.409,1.25c0.262,0.543 0.622,1.037 1.058,1.453c0.452,0.43 0.983,0.775 1.561,1.012c0.598,0.244 1.242,0.369 1.888,0.369c0.646,0 1.29,-0.125 1.888,-0.369c0.578,-0.237 1.109,-0.582 1.561,-1.012c0.436,-0.416 0.796,-0.91 1.058,-1.453c0.223,-0.462 0.373,-0.958 0.444,-1.466c0.077,-0.546 0.063,-1.105 -0.041,-1.647c-0.092,-0.481 -0.256,-0.948 -0.485,-1.381c-0.507,-0.961 -1.329,-1.745 -2.314,-2.205c-0.382,-0.179 -0.783,-0.305 -1.195,-0.381Zm-2,-2.002c-0.002,-0.01 -0.004,-0.021 -0.006,-0.031c-0.092,-0.481 -0.256,-0.948 -0.485,-1.381c-0.507,-0.961 -1.329,-1.745 -2.314,-2.205c-0.642,-0.3 -1.339,-0.453 -2.046,-0.467c-0.066,0 -0.065,0 -0.13,0c-0.707,0.014 -1.404,0.167 -2.046,0.467c-1.003,0.469 -1.837,1.273 -2.342,2.259c-0.214,0.418 -0.369,0.866 -0.457,1.327c-0.104,0.542 -0.118,1.101 -0.041,1.647c0.071,0.508 0.221,1.004 0.444,1.466c0.262,0.543 0.622,1.037 1.058,1.453c0.452,0.43 0.983,0.775 1.561,1.012c0.313,0.128 0.639,0.223 0.972,0.285c0.003,-0.023 0.007,-0.045 0.01,-0.067c0.118,-0.708 0.346,-1.397 0.673,-2.036c0.68,-1.327 1.786,-2.42 3.122,-3.084c0.591,-0.294 1.224,-0.503 1.874,-0.62c0.051,-0.009 0.102,-0.017 0.153,-0.025Zm-0.044,2.046c-0.338,0.077 -0.667,0.189 -0.983,0.337c-1.003,0.469 -1.837,1.273 -2.342,2.259c-0.186,0.363 -0.327,0.748 -0.419,1.146c0.259,-0.06 0.514,-0.14 0.76,-0.241c0.578,-0.237 1.109,-0.582 1.561,-1.012c0.436,-0.416 0.796,-0.91 1.058,-1.453c0.16,-0.331 0.282,-0.679 0.365,-1.036Zm3.628,-8.716l-3.116,3.116c0.311,0.373 0.583,0.778 0.81,1.208c0.321,0.608 0.551,1.263 0.681,1.938c0.024,0.129 0.045,0.257 0.063,0.387c0.042,0.005 0.084,0.011 0.126,0.018c0.655,0.1 1.294,0.294 1.894,0.574c0.327,0.153 0.642,0.331 0.94,0.532l3.188,-3.187l-2.586,0l0,-2l-2,0l0,-2.586Z" style="fill:#fff;"/>
        </g>
    </g>
</svg>
