<?xml version="1.0" encoding="UTF-8" standalone="no"?>
<!DOCTYPE svg PUBLIC "-//W3C//DTD SVG 1.1//EN" "http://www.w3.org/Graphics/SVG/1.1/DTD/svg11.dtd">
<svg width="100%" height="100%" viewBox="0 0 32 32" version="1.1" xmlns="http://www.w3.org/2000/svg" xmlns:xlink="http://www.w3.org/1999/xlink" xml:space="preserve" xmlns:serif="http://www.serif.com/" style="fill-rule:evenodd;clip-rule:evenodd;stroke-linejoin:round;stroke-miterlimit:2;">
<metadata>
<rdf:RDF xmlns:cc="http://web.resource.org/cc/"
         xmlns:rdf="http://www.w3.org/1999/02/22-rdf-syntax-ns#"
         xmlns:dc = "http://purl.org/dc/elements/1.1/"
         >

     <rdf:Description rdf:about="">
       <dc:title>Mutant Standard emoji v0.3.1</dc:title>
     </rdf:Description>

    <cc:work rdf:about="">
        <cc:license rdf:resource="http://creativecommons.org/licenses/by-nc-sa/4.0/"/>
        <cc:attributionName>Dzuk</cc:attributionName>
        <cc:attributionURL>http://mutant.tech/</cc:attributionURL>
    </cc:work>

</rdf:RDF>
</metadata>

    <rect id="two_female_symbols" x="0" y="0" width="32" height="32" style="fill:none;"/>
    <clipPath id="_clip1">
        <rect x="0" y="0" width="32" height="32"/>
    </clipPath>
    <g clip-path="url(#_clip1)">
        <g id="outline">
            <path d="M24.099,0.001c0.297,0.005 0.593,0.023 0.887,0.06c0.616,0.076 1.222,0.225 1.803,0.441c1.105,0.411 2.115,1.068 2.938,1.912c0.822,0.843 1.453,1.867 1.837,2.981c0.278,0.807 0.42,1.652 0.435,2.506c0.034,5.399 0.034,10.799 0,16.198c-0.016,0.886 -0.168,1.763 -0.467,2.598c-0.454,1.266 -1.229,2.409 -2.236,3.299c-0.784,0.692 -1.702,1.228 -2.691,1.568c-0.807,0.278 -1.652,0.42 -2.506,0.435c-5.399,0.035 -10.799,0.035 -16.198,0c-0.854,-0.015 -1.699,-0.157 -2.506,-0.435c-1.145,-0.395 -2.196,-1.051 -3.052,-1.907c-0.833,-0.833 -1.477,-1.85 -1.875,-2.96c-0.299,-0.835 -0.451,-1.712 -0.467,-2.598c-0.034,-5.399 -0.034,-10.799 0,-16.198c0.015,-0.854 0.157,-1.699 0.435,-2.506c0.362,-1.051 0.944,-2.023 1.701,-2.838c0.847,-0.912 1.907,-1.621 3.074,-2.055c0.612,-0.228 1.252,-0.38 1.9,-0.453c0.263,-0.029 0.526,-0.043 0.79,-0.048c5.399,-0.032 10.799,-0.032 16.198,0Z" style="fill-rule:nonzero;"/>
        </g>
        <g id="emoji">
            <path d="M30,8c0,-1.591 -0.632,-3.117 -1.757,-4.243c-1.126,-1.125 -2.652,-1.757 -4.243,-1.757l-16,0c-1.591,0 -3.117,0.632 -4.243,1.757c-1.125,1.126 -1.757,2.652 -1.757,4.243l0,16c0,1.591 0.632,3.117 1.757,4.243c1.126,1.125 2.652,1.757 4.243,1.757l16,0c1.591,0 3.117,-0.632 4.243,-1.757c1.125,-1.126 1.757,-2.652 1.757,-4.243l0,-16Z" style="fill:#ff4586;"/>
            <path d="M16,7.257c0.282,-0.197 0.579,-0.374 0.889,-0.528c0.591,-0.294 1.224,-0.503 1.873,-0.62c0.321,-0.057 0.643,-0.089 0.968,-0.104c0.12,-0.004 0.24,-0.005 0.36,-0.004c0.297,0.005 0.593,0.026 0.888,0.067c0.684,0.096 1.354,0.294 1.98,0.587c1.377,0.643 2.526,1.739 3.236,3.083c0.321,0.608 0.551,1.263 0.681,1.938c0.139,0.728 0.162,1.479 0.069,2.214c-0.091,0.715 -0.294,1.415 -0.599,2.068c-0.357,0.764 -0.853,1.461 -1.456,2.05c-0.624,0.609 -1.361,1.101 -2.165,1.441c-0.551,0.234 -1.132,0.394 -1.724,0.479l0,2.072l2,0l0,2l-2,0l0,2l-2,0l0,-2l-2,0l0,-2l2,0l0,-2.072c-0.536,-0.077 -1.062,-0.215 -1.566,-0.414c-0.506,-0.2 -0.988,-0.459 -1.434,-0.77c-0.399,0.278 -0.827,0.515 -1.276,0.705c-0.551,0.234 -1.132,0.394 -1.724,0.479l0,2.072l2,0l0,2l-2,0l0,2l-2,0l0,-2l-2,0l0,-2l2,0l0,-2.072c-0.536,-0.077 -1.062,-0.215 -1.566,-0.414c-0.813,-0.321 -1.562,-0.795 -2.202,-1.39c-0.596,-0.555 -1.094,-1.213 -1.465,-1.938c-0.327,-0.638 -0.555,-1.327 -0.673,-2.035c-0.121,-0.731 -0.125,-1.482 -0.013,-2.215c0.104,-0.683 0.31,-1.349 0.61,-1.971c0.673,-1.395 1.811,-2.547 3.198,-3.236c0.591,-0.294 1.224,-0.503 1.873,-0.62c0.321,-0.057 0.643,-0.089 0.968,-0.104c0.12,-0.004 0.24,-0.005 0.36,-0.004c0.297,0.005 0.593,0.026 0.887,0.067c0.685,0.096 1.355,0.294 1.981,0.587c0.365,0.17 0.713,0.372 1.042,0.602Zm-1.498,1.414c-0.127,-0.074 -0.258,-0.142 -0.391,-0.204c-0.642,-0.3 -1.339,-0.453 -2.046,-0.467c-0.065,0 -0.064,0 -0.13,0c-0.707,0.014 -1.404,0.167 -2.046,0.467c-0.985,0.46 -1.807,1.244 -2.314,2.205c-0.219,0.415 -0.379,0.861 -0.473,1.32c-0.115,0.561 -0.133,1.141 -0.053,1.708c0.071,0.508 0.221,1.004 0.444,1.466c0.262,0.543 0.622,1.037 1.058,1.453c0.452,0.43 0.983,0.776 1.56,1.012c0.599,0.244 1.243,0.369 1.889,0.369c0.646,0 1.29,-0.125 1.889,-0.369c0.21,-0.087 0.415,-0.187 0.612,-0.301c-0.298,-0.379 -0.558,-0.788 -0.772,-1.219c-0.32,-0.644 -0.54,-1.336 -0.648,-2.047c-0.112,-0.733 -0.108,-1.484 0.014,-2.215c0.112,-0.68 0.327,-1.343 0.634,-1.96c0.215,-0.432 0.474,-0.84 0.773,-1.218Zm2.997,8.659c0.197,0.114 0.402,0.214 0.612,0.301c0.599,0.244 1.243,0.369 1.889,0.369c0.646,0 1.29,-0.125 1.889,-0.369c0.577,-0.236 1.108,-0.582 1.56,-1.012c0.436,-0.416 0.796,-0.91 1.058,-1.453c0.223,-0.462 0.373,-0.958 0.444,-1.466c0.08,-0.567 0.062,-1.147 -0.053,-1.708c-0.094,-0.459 -0.254,-0.905 -0.473,-1.32c-0.507,-0.961 -1.329,-1.745 -2.314,-2.205c-0.642,-0.3 -1.339,-0.453 -2.046,-0.467c-0.066,0 -0.065,0 -0.13,0c-0.707,0.014 -1.404,0.167 -2.046,0.467c-0.133,0.062 -0.264,0.13 -0.391,0.204c0.281,0.355 0.528,0.738 0.735,1.142c0.301,0.587 0.518,1.216 0.642,1.863c0.139,0.728 0.162,1.479 0.069,2.214c-0.091,0.715 -0.294,1.415 -0.599,2.068c-0.228,0.488 -0.513,0.949 -0.846,1.372Zm-1.499,-7.328c-0.159,0.211 -0.302,0.435 -0.425,0.67c-0.219,0.415 -0.379,0.861 -0.473,1.32c-0.115,0.561 -0.133,1.141 -0.053,1.708c0.071,0.508 0.221,1.004 0.444,1.466c0.141,0.293 0.312,0.572 0.507,0.832c0.195,-0.26 0.366,-0.539 0.507,-0.832c0.223,-0.462 0.373,-0.958 0.444,-1.466c0.08,-0.567 0.062,-1.147 -0.053,-1.708c-0.09,-0.44 -0.24,-0.867 -0.445,-1.266c-0.13,-0.254 -0.282,-0.496 -0.453,-0.724Z" style="fill:#fff;"/>
        </g>
    </g>
</svg>
