<?xml version="1.0" encoding="UTF-8" standalone="no"?>
<!DOCTYPE svg
  PUBLIC '-//W3C//DTD SVG 1.1//EN'
  'http://www.w3.org/Graphics/SVG/1.1/DTD/svg11.dtd'>
<svg height="100%" style="fill-rule:evenodd;clip-rule:evenodd;stroke-linejoin:round;stroke-miterlimit:1.41421;" version="1.1" viewBox="0 0 32 32" width="100%" xml:space="preserve" xmlns="http://www.w3.org/2000/svg" xmlns:serif="http://www.serif.com/" xmlns:xlink="http://www.w3.org/1999/xlink">
    <metadata>
        <rdf:RDF xmlns:cc="http://web.resource.org/cc/" xmlns:dc="http://purl.org/dc/elements/1.1/" xmlns:rdf="http://www.w3.org/1999/02/22-rdf-syntax-ns#">
            <rdf:Description rdf:about="">
                <dc:title>Mutant Standard emoji v0.3.1</dc:title>
            </rdf:Description>
            <cc:work rdf:about="">
                <cc:license rdf:resource="http://creativecommons.org/licenses/by-nc-sa/4.0/"/>
                <cc:attributionName>Dzuk</cc:attributionName>
                <cc:attributionURL>http://mutant.tech/</cc:attributionURL>
            </cc:work>
        </rdf:RDF>
    </metadata>
    <rect height="32" id="lesbian_flag" style="fill:none;" width="32" x="0" y="0"/>
    <clipPath id="_clip1">
        <rect height="32" width="32" x="0" y="0"/>
    </clipPath>
    <g clip-path="url(#_clip1)">
        <g id="outline">
            <path d="M32,6c0,-0.53 -0.211,-1.039 -0.586,-1.414c-0.375,-0.375 -0.884,-0.586 -1.414,-0.586c-5.746,0 -22.254,0 -28,0c-0.53,0 -1.039,0.211 -1.414,0.586c-0.375,0.375 -0.586,0.884 -0.586,1.414c0,4.52 0,15.48 0,20c0,0.53 0.211,1.039 0.586,1.414c0.375,0.375 0.884,0.586 1.414,0.586c5.746,0 22.254,0 28,0c0.53,0 1.039,-0.211 1.414,-0.586c0.375,-0.375 0.586,-0.884 0.586,-1.414c0,-4.52 0,-15.48 0,-20Z"/>
        </g>
        <g id="emoji">
            <g id="emoji1" serif:id="emoji">
                <rect height="20" style="fill:none;" width="28" x="2" y="6"/>
                <clipPath id="_clip2">
                    <rect height="20" width="28" x="2" y="6"/>
                </clipPath>
                <g clip-path="url(#_clip2)">
                    <rect height="5"     style="fill:#a40162;" width="30" x="1" y="22"/>
                    <rect height="4.143" style="fill:#b75592;" width="30" x="1" y="19"/>
                    <rect height="3.786" style="fill:#d162a6;" width="30" x="1" y="16.5"/>
                    <rect height="3.429" style="fill:#fff;"    width="30" x="1" y="14"/>
                    <rect height="3.571" style="fill:#ff9856;" width="30" x="1" y="11"/>
                    <rect height="3.714" style="fill:#ef7427;" width="30" x="1" y="8"/>
                    <rect height="3.857" style="fill:#d62c00;" width="30" x="1" y="5"/>
                </g>
            </g>
        </g>
    </g>
</svg>